<?xml version='1.0' encoding='utf-8'?>
<svg xmlns="http://www.w3.org/2000/svg" version="1.1" id="Layer_1" x="0px" y="0px" viewBox="0 0 1920 1080" style="enable-background:new 0 0 1920 1080;"> <style type="text/css"> .st0{fill:#4BBFA9;} .st1{fill:#FFE8A9;} .st2{fill:#D65050;} </style> <rect y="3" class="st0" width="1920" height="1080"/> <g> <g> <path class="st1" d="M1370.5,884.1c0.3,19.6-16.2,35.6-31,49.8c-14.8,14.2-29.9,32.2-25.7,51.4c-20.3-36.9-74.5-53.1-87.1-92.7 c-2.4-7.6-3.1-15.6-2.8-23.6c0.2-8.4,1.8-17.5,8.3-23.3c6.7-6,17-7.2,26.3-6.1c20.9,2.4,40.1,14.9,49.5,32.1 c0.9-4.5,1.7-8.9,3.2-13.2c2.7-7.6,8.2-15.2,16.7-17.4c11.9-3.1,23.7,5.4,30.9,14.6C1365.3,864,1370.4,873.8,1370.5,884.1z"/> <g> <path class="st1" d="M1366,884.1c-0.1,21.1-19,35.9-32.7,49.6c-14,14-27.9,31.8-23.9,52.9c2.7-1.2,5.5-2.3,8.2-3.5 c-15-26.7-43.4-41-65.3-61.2c-11.1-10.2-20.5-22.4-23.2-37.6c-1.6-9.2-2.2-20.9,1.8-29.6c4.4-9.3,14.8-11.4,24.2-10.9 c19.9,1.1,39,12.8,48.8,30.1c1.8,3.2,7.5,2.8,8.2-1.1c1.4-7.1,2.7-14.7,7.2-20.7c4.9-6.5,12.4-8.8,20.1-6 C1353.9,851.5,1365.4,869.2,1366,884.1c0.2,5.8,9.2,5.8,9,0c-0.8-19.3-15.4-41.5-34.5-47c-9.1-2.6-18.7-0.2-25.4,6.5 c-7.3,7.2-9.6,17.2-11.5,26.9c2.7-0.4,5.5-0.7,8.2-1.1c-9.5-16.9-26.6-28.9-45.4-33c-19.4-4.3-41.8,0.2-46.1,22.5 c-3.6,18.8,0.6,38.9,11.9,54.2c10.1,13.6,23.7,23.8,37,34c15.2,11.6,31.1,23.5,40.6,40.5c2.6,4.7,9.1,1.4,8.2-3.5 c-4-21.4,16.1-38.7,29.7-52c13.3-13,27.1-28.3,27.1-48C1375.1,878.3,1366.1,878.3,1366,884.1z"/> </g> </g> <g> <path class="st1" d="M954.2,190.9c-0.8-7.6-1.7-15.5,0.6-22.8s8.3-14,15.9-14.5c3.1-0.2,6.2,0.6,9,2c14.6,6.9,19.8,26.2,15.4,41.7 S979.2,225,967.5,236c-11.8,11-24.5,21.5-32.3,35.6c-5.9-13-11.8-26-17.7-39.1c-4.3-9.5-8.6-19-10.5-29.2 c-1.2-6.5-1.5-13.1-1.7-19.7c-0.2-6.8-0.2-14.5,4.5-19.4c7.1-7.5,20.2-3.8,27.9,3.1c7.8,6.9,13.3,16.4,22.2,21.6"/> <g> <path class="st1" d="M958.7,190.9c-0.9-8.4-2.3-18.2,2.3-25.8c4.3-7.1,11.6-8.8,18.7-4.4c11.4,6.9,14.4,22.7,11.2,34.7 c-4,15.5-15.9,27.5-27.3,38.1c-11.9,11-24.2,21.7-32.4,35.9c2.6,0,5.2,0,7.8,0c-6.4-14.1-12.9-28.2-19.3-42.4 c-3.1-6.9-6-13.9-7.8-21.2c-1.8-7.5-2.1-15.2-2.3-22.8c-0.2-5.6-0.5-13.3,4.8-16.8c4.7-3.1,11.3-1.1,15.8,1.4 c10.9,6.2,16.6,18.6,27.3,25.2c4.9,3,9.5-4.7,4.5-7.8c-12.5-7.7-18.4-22.6-32.8-27.8c-13.7-4.9-26.5,2.2-28.3,16.8 c-2,16.2,1.1,33.7,7.3,48.7c7.1,17.2,15.3,34.1,23,51.1c1.4,3.2,6.2,2.7,7.8,0c15.5-26.8,46.9-40.7,58.6-70.2 c4.6-11.7,4.7-25-0.7-36.4c-5.1-10.9-17.6-21-30.2-17.6c-18,4.9-18.7,26.2-17,41.2C950.3,196.6,959.3,196.6,958.7,190.9 L958.7,190.9z"/> </g> </g> <g> <path class="st1" d="M1499.9,745.2c-6.8-10.2,3.2-26,15.5-25.8c12.3,0.1,21.9,13.5,20.2,25.6c-1.1,7.7-5.7,14.4-10.1,20.8 c-6.9,9.8-13.7,19.7-20.6,29.5c-0.9,1.3-1.9,2.7-3.4,3.2c-1.1,0.4-2.3,0.2-3.4,0c-30.4-5.2-54.5-35.2-53-66 c0.1-2.1,0.4-4.3,1.6-5.9c1.4-1.9,3.7-2.7,6-3.3c17.5-4.4,37.5,4,46.7,19.5"/> <g> <path class="st1" d="M1503.8,742.9c-3.7-6.2-0.1-14,5.8-17.4c7-4,14.9,0.4,18.7,6.6c4.8,7.8,2.7,16.2-1.7,23.7 c-5.4,9.2-12.1,17.8-18.2,26.6c-1.5,2.2-3,4.4-4.6,6.6c-0.8,1.1-2.4,4.6-3.8,5.2c-2.7,1-9.1-1.9-11.7-2.9 c-7.6-3-14.6-7.7-20.4-13.4c-11.5-11.4-19-27.5-18.4-43.8c0.1-3.1,0.4-5.1,3.7-6.1c2.1-0.6,4.3-1,6.5-1.1 c4.6-0.3,9.1,0.3,13.5,1.5c9.2,2.7,17.2,8.6,22.2,16.8c3,4.9,10.8,0.4,7.8-4.5c-5.9-9.6-14.9-16.6-25.6-20.3 c-9.2-3.2-24-4.8-32.3,1.4c-8.5,6.4-4.7,23-2.2,31.6c3,10.3,8.5,19.8,15.6,27.8c7.4,8.4,16.8,14.9,27.3,18.8 c4.6,1.8,11.2,4.2,16.1,3c5.9-1.4,9.2-9,12.4-13.5c4.2-6,8.4-12,12.6-18c4.2-6,8.6-11.9,11.2-18.7c3.8-10,2-21-5.1-29.1 c-7.6-8.8-20.4-11.5-30-4.4c-8.7,6.4-12.9,18.7-7,28.4C1499,752.4,1506.8,747.9,1503.8,742.9L1503.8,742.9z"/> </g> </g> <g> <path class="st1" d="M1313.9,254.2c-6.8-10.2,3.2-26,15.5-25.8c12.3,0.1,21.9,13.5,20.2,25.6c-1.1,7.7-5.7,14.4-10.1,20.8 c-6.9,9.8-13.7,19.7-20.6,29.5c-0.9,1.3-1.9,2.7-3.4,3.2c-1.1,0.4-2.3,0.2-3.4,0c-30.4-5.2-54.5-35.2-53-66 c0.1-2.1,0.4-4.3,1.6-5.9c1.4-1.9,3.7-2.7,6-3.3c17.5-4.4,37.5,4,46.7,19.5"/> <g> <path class="st1" d="M1317.8,251.9c-3.7-6.2-0.1-14,5.8-17.4c7-4,14.9,0.4,18.7,6.6c4.8,7.8,2.7,16.2-1.7,23.7 c-5.4,9.2-12.1,17.8-18.2,26.6c-1.5,2.2-3,4.4-4.6,6.6c-0.8,1.1-2.4,4.6-3.8,5.2c-2.7,1-9.1-1.9-11.7-2.9 c-7.6-3-14.6-7.7-20.4-13.4c-11.5-11.4-19-27.5-18.4-43.8c0.1-3.1,0.4-5.1,3.7-6.1c2.1-0.6,4.3-1,6.5-1.1 c4.6-0.3,9.1,0.3,13.5,1.5c9.2,2.7,17.2,8.6,22.2,16.8c3,4.9,10.8,0.4,7.8-4.5c-5.9-9.6-14.9-16.6-25.6-20.3 c-9.2-3.2-24-4.8-32.3,1.4c-8.5,6.4-4.7,23-2.2,31.6c3,10.3,8.5,19.8,15.6,27.8c7.4,8.4,16.8,14.9,27.3,18.8 c4.6,1.8,11.2,4.2,16.1,3c5.9-1.4,9.2-9,12.4-13.5c4.2-6,8.4-12,12.6-18c4.2-6,8.6-11.9,11.2-18.7c3.8-10,2-21-5.1-29.1 c-7.6-8.8-20.4-11.5-30-4.4c-8.7,6.4-12.9,18.7-7,28.4C1313,261.4,1320.8,256.9,1317.8,251.9L1317.8,251.9z"/> </g> </g> <g> <path class="st1" d="M1092.9,560.2c-6.8-10.2,3.2-26,15.5-25.8c12.3,0.1,21.9,13.5,20.2,25.6c-1.1,7.7-5.7,14.4-10.1,20.8 c-6.9,9.8-13.7,19.7-20.6,29.5c-0.9,1.3-1.9,2.7-3.4,3.2c-1.1,0.4-2.3,0.2-3.4,0c-30.4-5.2-54.5-35.2-53-66 c0.1-2.1,0.4-4.3,1.6-5.9c1.4-1.9,3.7-2.7,6-3.3c17.5-4.4,37.5,4,46.7,19.5"/> <g> <path class="st1" d="M1096.8,557.9c-3.7-6.2-0.1-14,5.8-17.4c7-4,14.9,0.4,18.7,6.6c4.8,7.8,2.7,16.2-1.7,23.7 c-5.4,9.2-12.1,17.8-18.2,26.6c-1.5,2.2-3,4.4-4.6,6.6c-0.8,1.1-2.4,4.6-3.8,5.2c-2.7,1-9.1-1.9-11.7-2.9 c-7.6-3-14.6-7.7-20.4-13.4c-11.5-11.4-19-27.5-18.4-43.8c0.1-3.1,0.4-5.1,3.7-6.1c2.1-0.6,4.3-1,6.5-1.1 c4.6-0.3,9.1,0.3,13.5,1.5c9.2,2.7,17.2,8.6,22.2,16.8c3,4.9,10.8,0.4,7.8-4.5c-5.9-9.6-14.9-16.6-25.6-20.3 c-9.2-3.2-24-4.8-32.3,1.4c-8.5,6.4-4.7,23-2.2,31.6c3,10.3,8.5,19.8,15.6,27.8c7.4,8.4,16.8,14.9,27.3,18.8 c4.6,1.8,11.2,4.2,16.1,3c5.9-1.4,9.2-9,12.4-13.5c4.2-6,8.4-12,12.6-18c4.2-6,8.6-11.9,11.2-18.7c3.8-10,2-21-5.1-29.1 c-7.6-8.8-20.4-11.5-30-4.4c-8.7,6.4-12.9,18.7-7,28.4C1092,567.4,1099.8,562.9,1096.8,557.9L1096.8,557.9z"/> </g> </g> <g> <path class="st2" d="M1450.8,98.9c0.3,19.6-16.2,35.6-31,49.8c-14.8,14.2-29.9,32.2-25.7,51.4c-20.3-36.9-74.5-53.1-87.1-92.7 c-2.4-7.6-3.1-15.6-2.8-23.6c0.2-8.4,1.8-17.5,8.3-23.3c6.7-6,17-7.2,26.3-6.1c20.9,2.4,40.1,14.9,49.5,32.1 c0.9-4.5,1.7-8.9,3.2-13.2c2.7-7.6,8.2-15.2,16.7-17.4c11.9-3.1,23.7,5.4,30.9,14.6C1445.6,78.9,1450.6,88.6,1450.8,98.9z"/> <g> <path class="st2" d="M1446.3,98.9c-0.1,21.1-19,35.9-32.7,49.6c-14,14-27.9,31.8-23.9,52.9c2.7-1.2,5.5-2.3,8.2-3.5 c-15-26.7-43.4-41-65.3-61.2c-11.1-10.2-20.5-22.4-23.2-37.6c-1.6-9.2-2.2-20.9,1.8-29.6c4.4-9.3,14.8-11.4,24.2-10.9 c19.9,1.1,39,12.8,48.8,30.1c1.8,3.2,7.5,2.8,8.2-1.1c1.4-7.1,2.7-14.7,7.2-20.7c4.9-6.5,12.4-8.8,20.1-6 C1434.2,66.3,1445.7,84,1446.3,98.9c0.2,5.8,9.2,5.8,9,0c-0.8-19.3-15.4-41.5-34.5-47c-9.1-2.6-18.7-0.2-25.4,6.5 c-7.3,7.2-9.6,17.2-11.5,26.9c2.7-0.4,5.5-0.7,8.2-1.1c-9.5-16.9-26.6-28.9-45.4-33c-19.4-4.3-41.8,0.2-46.1,22.5 c-3.6,18.8,0.6,38.9,11.9,54.2c10.1,13.6,23.7,23.8,37,34c15.2,11.6,31.1,23.5,40.6,40.5c2.6,4.7,9.1,1.4,8.2-3.5 c-4-21.4,16.1-38.7,29.7-52c13.3-13,27.1-28.3,27.1-48C1455.3,93.1,1446.3,93.1,1446.3,98.9z"/> </g> </g> <g> <path class="st2" d="M1212,720.2c0.3,12.8-12.8,23.1-24.5,32.4c-11.7,9.2-23.6,20.9-20.3,33.4c-16-24-58.9-34.5-68.8-60.2 c-1.9-5-2.4-10.2-2.2-15.3c0.2-5.5,1.4-11.3,6.6-15.2c5.3-3.9,13.4-4.7,20.8-4c16.5,1.5,31.7,9.7,39.1,20.9 c0.7-2.9,1.3-5.8,2.5-8.6c2.1-5,6.5-9.9,13.2-11.3c9.4-2,18.7,3.5,24.4,9.5C1207.9,707.2,1211.9,713.5,1212,720.2z"/> <g> <path class="st2" d="M1207.5,720.2c-0.2,14.3-16.9,23.8-26.5,31.9c-10.4,8.7-21.3,20.4-18.1,35.1c2.7-1.2,5.5-2.3,8.2-3.5 c-15.6-22.7-44.7-29.6-62.5-49.8c-5-5.7-7.7-12.4-8-20c-0.3-9.5,2.8-16.4,12.9-18c16-2.5,35.9,5.1,45.2,18.5 c2.1,3,7.3,2.9,8.2-1.1c1.1-4.7,2.2-9.6,5.8-13.1c4-3.9,9.7-4.7,15-3C1197,700.2,1206.8,710.1,1207.5,720.2c0.4,5.8,9.4,5.8,9,0 c-0.9-14.6-13.9-28.8-28-32.1c-7-1.6-14.3-0.5-20,4c-6.1,4.7-8.4,11.6-10.2,18.9c2.7-0.4,5.5-0.7,8.2-1.1 c-8.3-12-21.9-19.5-36.1-22.1c-13.4-2.5-31.8-1.9-37.2,13.3c-4.6,13-0.2,28.1,8.3,38.3c7.8,9.4,18.7,16,29,22.5 c11.7,7.4,24.8,14.8,32.8,26.4c2.9,4.2,9.3,1.6,8.2-3.5c-3.1-14.5,15.5-25.9,24.8-33.6c9.6-7.9,19.9-17.6,20.1-31 C1216.6,714.4,1207.6,714.4,1207.5,720.2z"/> </g> </g> <g> <path class="st2" d="M1096,947.2c0.3,12.8-12.8,23.1-24.5,32.4c-11.7,9.2-23.6,20.9-20.3,33.4c-16-24-58.9-34.5-68.8-60.2 c-1.9-5-2.4-10.2-2.2-15.3c0.2-5.5,1.4-11.3,6.6-15.2c5.3-3.9,13.4-4.7,20.8-4c16.5,1.5,31.7,9.7,39.1,20.9 c0.7-2.9,1.3-5.8,2.5-8.6c2.1-5,6.5-9.9,13.2-11.3c9.4-2,18.7,3.5,24.4,9.5C1091.9,934.2,1095.9,940.5,1096,947.2z"/> <g> <path class="st2" d="M1091.5,947.2c-0.2,14.3-16.9,23.8-26.5,31.9c-10.4,8.7-21.3,20.4-18.1,35.1c2.7-1.2,5.5-2.3,8.2-3.5 c-15.6-22.7-44.7-29.6-62.5-49.8c-5-5.7-7.7-12.4-8-20c-0.3-9.5,2.8-16.4,12.9-18c16-2.5,35.9,5.1,45.2,18.5 c2.1,3,7.3,2.9,8.2-1.1c1.1-4.7,2.2-9.6,5.8-13.1c4-3.9,9.7-4.7,15-3C1081,927.2,1090.8,937.1,1091.5,947.2c0.4,5.8,9.4,5.8,9,0 c-0.9-14.6-13.9-28.8-28-32.1c-7-1.6-14.3-0.5-20,4c-6.1,4.7-8.4,11.6-10.2,18.9c2.7-0.4,5.5-0.7,8.2-1.1 c-8.3-12-21.9-19.5-36.1-22.1c-13.4-2.5-31.8-1.9-37.2,13.3c-4.6,13-0.2,28.1,8.3,38.3c7.8,9.4,18.7,16,29,22.5 c11.7,7.4,24.8,14.8,32.8,26.4c2.9,4.2,9.3,1.6,8.2-3.5c-3.1-14.5,15.5-25.9,24.8-33.6c9.6-7.9,19.9-17.6,20.1-31 C1100.6,941.4,1091.6,941.4,1091.5,947.2z"/> </g> </g> <g> <path class="st2" d="M1539.4,246.7c-0.8-7.6-1.7-15.5,0.6-22.8c2.2-7.3,8.3-14,15.9-14.5c3.1-0.2,6.2,0.6,9,2 c14.6,6.9,19.8,26.2,15.4,41.7c-4.3,15.5-15.9,27.9-27.6,38.8c-11.8,11-24.5,21.5-32.3,35.6c-5.9-13-11.8-26-17.7-39.1 c-4.3-9.5-8.6-19-10.5-29.2c-1.2-6.5-1.5-13.1-1.7-19.7c-0.2-6.8-0.2-14.5,4.5-19.4c7.1-7.5,20.2-3.8,27.9,3.1 s13.3,16.4,22.2,21.6"/> <g> <path class="st2" d="M1543.9,246.7c-0.9-8.4-2.3-18.2,2.3-25.8c4.3-7.1,11.6-8.8,18.7-4.4c11.4,6.9,14.4,22.7,11.2,34.7 c-4,15.5-15.9,27.5-27.3,38.1c-11.9,11-24.2,21.7-32.4,35.9c2.6,0,5.2,0,7.8,0c-6.4-14.1-12.9-28.2-19.3-42.4 c-3.1-6.9-6-13.9-7.8-21.2c-1.8-7.5-2.1-15.2-2.3-22.8c-0.2-5.6-0.5-13.3,4.8-16.8c4.7-3.1,11.3-1.1,15.8,1.4 c10.9,6.2,16.6,18.6,27.3,25.2c4.9,3,9.5-4.7,4.5-7.8c-12.5-7.7-18.4-22.6-32.8-27.8c-13.7-4.9-26.5,2.2-28.3,16.8 c-2,16.2,1.1,33.7,7.3,48.7c7.1,17.2,15.3,34.1,23,51.1c1.4,3.2,6.2,2.7,7.8,0c15.5-26.8,46.9-40.7,58.6-70.2 c4.6-11.7,4.7-25-0.7-36.4c-5.1-10.9-17.6-21-30.2-17.6c-18,4.9-18.7,26.2-17,41.2C1535.6,252.4,1544.6,252.5,1543.9,246.7 L1543.9,246.7z"/> </g> </g> <g> <path class="st2" d="M1815.2,295c-6.8-10.2,3.2-26,15.5-25.8s21.9,13.5,20.2,25.6c-1.1,7.7-5.7,14.4-10.1,20.8 c-6.9,9.8-13.7,19.7-20.6,29.5c-0.9,1.3-1.9,2.7-3.4,3.2c-1.1,0.4-2.3,0.2-3.4,0c-30.4-5.2-54.5-35.2-53-66 c0.1-2.1,0.4-4.3,1.6-5.9c1.4-1.9,3.7-2.7,6-3.3c17.5-4.4,37.5,4,46.7,19.5"/> <g> <path class="st2" d="M1819.1,292.8c-3.7-6.2-0.1-14,5.8-17.4c7-4,14.9,0.4,18.7,6.6c4.8,7.8,2.7,16.2-1.7,23.7 c-5.4,9.2-12.1,17.8-18.2,26.6c-1.5,2.2-3,4.4-4.6,6.6c-0.8,1.1-2.4,4.6-3.8,5.2c-2.7,1-9.1-1.9-11.7-2.9 c-7.6-3-14.6-7.7-20.4-13.4c-11.5-11.4-19-27.5-18.4-43.8c0.1-3.1,0.4-5.1,3.7-6.1c2.1-0.6,4.3-1,6.5-1.1 c4.6-0.3,9.1,0.3,13.5,1.5c9.2,2.7,17.2,8.6,22.2,16.8c3,4.9,10.8,0.4,7.8-4.5c-5.9-9.6-14.9-16.6-25.6-20.3 c-9.2-3.2-24-4.8-32.3,1.4c-8.5,6.4-4.7,23-2.2,31.6c3,10.3,8.5,19.8,15.6,27.8c7.4,8.4,16.8,14.9,27.3,18.8 c4.6,1.8,11.2,4.2,16.1,3c5.9-1.4,9.2-9,12.4-13.5c4.2-6,8.4-12,12.6-18c4.2-6,8.6-11.9,11.2-18.7c3.8-10,2-21-5.1-29.1 c-7.6-8.8-20.4-11.5-30-4.4c-8.7,6.4-12.9,18.7-7,28.4C1814.3,302.3,1822.1,297.8,1819.1,292.8L1819.1,292.8z"/> </g> </g> <g> <path class="st2" d="M1149.2,113c-6.8-10.2,3.2-26,15.5-25.8s21.9,13.5,20.2,25.6c-1.1,7.7-5.7,14.4-10.1,20.8 c-6.9,9.8-13.7,19.7-20.6,29.5c-0.9,1.3-1.9,2.7-3.4,3.2c-1.1,0.4-2.3,0.2-3.4,0c-30.4-5.2-54.5-35.2-53-66 c0.1-2.1,0.4-4.3,1.6-5.9c1.4-1.9,3.7-2.7,6-3.3c17.5-4.4,37.5,4,46.7,19.5"/> <g> <path class="st2" d="M1153.1,110.8c-3.7-6.2-0.1-14,5.8-17.4c7-4,14.9,0.4,18.7,6.6c4.8,7.8,2.7,16.2-1.7,23.7 c-5.4,9.2-12.1,17.8-18.2,26.6c-1.5,2.2-3,4.4-4.6,6.6c-0.8,1.1-2.4,4.6-3.8,5.2c-2.7,1-9.1-1.9-11.7-2.9 c-7.6-3-14.6-7.7-20.4-13.4c-11.5-11.4-19-27.5-18.4-43.8c0.1-3.1,0.4-5.1,3.7-6.1c2.1-0.6,4.3-1,6.5-1.1 c4.6-0.3,9.1,0.3,13.5,1.5c9.2,2.7,17.2,8.6,22.2,16.8c3,4.9,10.8,0.4,7.8-4.5c-5.9-9.6-14.9-16.6-25.6-20.3 c-9.2-3.2-24-4.8-32.3,1.4c-8.5,6.4-4.7,23-2.2,31.6c3,10.3,8.5,19.8,15.6,27.8c7.4,8.4,16.8,14.9,27.3,18.8 c4.6,1.8,11.2,4.2,16.1,3c5.9-1.4,9.2-9,12.4-13.5c4.2-6,8.4-12,12.6-18c4.2-6,8.6-11.9,11.2-18.7c3.8-10,2-21-5.1-29.1 c-7.6-8.8-20.4-11.5-30-4.4c-8.7,6.4-12.9,18.7-7,28.4C1148.3,120.3,1156.1,115.8,1153.1,110.8L1153.1,110.8z"/> </g> </g> <g> <path class="st1" d="M1658.8,172.1c-0.3,19.6,16.2,35.6,31,49.8c14.8,14.2,29.9,32.2,25.7,51.4c20.3-36.9,74.5-53.1,87.1-92.7 c2.4-7.6,3.1-15.6,2.8-23.6c-0.2-8.4-1.8-17.5-8.3-23.3c-6.7-6-17-7.2-26.3-6.1c-20.9,2.4-40.1,14.9-49.5,32.1 c-0.9-4.5-1.7-8.9-3.2-13.2c-2.7-7.6-8.2-15.2-16.7-17.4c-11.9-3.1-23.7,5.4-30.9,14.6C1664,152,1658.9,161.8,1658.8,172.1z"/> <g> <path class="st1" d="M1654.3,172.1c0.1,19.7,13.9,35,27.1,48c13.6,13.3,33.8,30.6,29.7,52c-0.9,4.8,5.6,8.2,8.2,3.5 c17-30.3,52.1-43.7,73.8-69.7c12.4-14.8,18-32.5,16.6-51.8c-0.7-9.6-3.5-19.3-11.5-25.2c-8-5.9-18.6-6.8-28.2-5.7 c-21.6,2.6-41.9,15.1-52.7,34.2c2.7,0.4,5.5,0.7,8.2,1.1c-1.9-9.7-4.2-19.7-11.5-26.9c-6.7-6.7-16.3-9.1-25.4-6.5 C1669.7,130.6,1655.1,152.8,1654.3,172.1c-0.2,5.8,8.8,5.8,9,0c0.6-14.9,12.1-32.6,26.4-37.9c7.4-2.7,14.6-0.7,19.6,5.3 c4.9,6,6.3,13.9,7.7,21.3c0.8,3.9,6.4,4.3,8.2,1.1c8.8-15.6,24.7-26.1,42.3-29.4c8.5-1.6,19.6-1.8,26.5,4.3 c7.2,6.4,7.3,17.7,7,26.6c-1.4,34-31.2,52.5-55.3,71.5c-13.1,10.3-25.8,21.5-34,36.1c2.7,1.2,5.5,2.3,8.2,3.5 c4-21-9.9-38.8-23.9-52.9c-13.6-13.6-32.6-28.5-32.7-49.6C1663.2,166.3,1654.2,166.3,1654.3,172.1z"/> </g> </g> <g> <path class="st1" d="M1447.1,458.9c0.8-7.6,1.7-15.5-0.6-22.8c-2.2-7.3-8.3-14-15.9-14.5c-3.1-0.2-6.2,0.6-9,2 c-14.6,6.9-19.8,26.2-15.4,41.7c4.3,15.5,15.9,27.9,27.6,38.8s24.5,21.5,32.3,35.6c5.9-13,11.8-26,17.7-39.1 c4.3-9.5,8.6-19,10.5-29.2c1.2-6.5,1.5-13.1,1.7-19.7c0.2-6.8,0.2-14.5-4.5-19.4c-7.1-7.5-20.2-3.8-27.9,3.1s-13.3,16.4-22.2,21.6 "/> <g> <path class="st1" d="M1451.6,458.9c1.5-13.9,1.7-31-12.1-39.1c-11.8-7-25.8,0.7-32.7,11c-16.8,25.2,0.6,53.8,19.1,72 c12.7,12.5,27.2,23.5,36.3,39.1c1.6,2.7,6.3,3.2,7.8,0c7.6-16.7,15.6-33.3,22.7-50.2c6.4-15.3,9.7-33,7.7-49.6 c-1.8-14.3-14.1-21.7-27.7-17.1c-14.9,5-20.8,20.2-33.5,28c-4.9,3-0.4,10.8,4.5,7.8c10.6-6.5,16.2-18.6,26.7-24.9 c4.4-2.7,10.9-4.9,15.8-2.2c5.9,3.2,5.5,11.4,5.4,17.2c-0.2,7.3-0.5,14.8-2.1,21.9c-1.7,7.4-4.6,14.4-7.6,21.3 c-6.5,14.5-13.1,28.8-19.6,43.3c2.6,0,5.2,0,7.8,0c-8.1-14-20.1-24.5-31.8-35.4c-11.6-10.7-23.8-22.8-27.9-38.6 c-3.1-11.8-0.3-27.3,10.7-34.4c7.2-4.6,14.8-3.3,19.3,4.1c4.6,7.6,3.2,17.4,2.3,25.8C1442,464.6,1451,464.6,1451.6,458.9 L1451.6,458.9z"/> </g> </g> <g> <path class="st1" d="M1001.8,717.6c2.1-7.4,4.2-15,3.3-22.6c-1-7.6-5.8-15.2-13.3-17c-3-0.7-6.2-0.4-9.2,0.4 c-15.5,4.3-23.9,22.4-22.2,38.5c1.7,16,10.9,30.1,20.7,42.9c9.8,12.8,20.5,25.4,25.9,40.5c8-11.8,16.1-23.7,24.1-35.5 c5.8-8.6,11.7-17.3,15.3-27c2.3-6.2,3.6-12.7,5-19.1c1.4-6.7,2.6-14.2-1.2-19.9c-5.8-8.6-19.2-7.2-28-1.7 c-8.8,5.5-15.8,13.9-25.6,17.6"/> <g> <path class="st1" d="M1006.2,718.8c3.8-13.4,7-30-4.8-40.6c-10.2-9.1-25.4-4.6-34.1,4.4c-8.4,8.7-12.5,21.6-11.5,33.6 c1.3,15,8.7,28.5,17.4,40.5c10.4,14.5,23.1,27.8,29.4,44.8c1.4,3.7,6,4.4,8.2,1.1c10.3-15.2,21.1-30.1,30.8-45.6 c8.7-13.9,14.7-30.6,15.5-47c0.8-14.6-10.4-23.5-24.4-21.4c-15.4,2.3-23.6,16.3-37.4,21.8c-5.3,2.1-3,10.8,2.4,8.7 c5.9-2.4,10.8-5.8,15.7-9.7c4.9-4,9.8-8.5,15.8-10.7c4.6-1.6,10.9-2.5,15.1,0.6c5.8,4.3,3.6,13.3,2.4,19.2 c-1.5,7.5-3.2,15-6.3,22c-2.9,6.3-6.6,12.2-10.4,17.9c-8.9,13.3-18,26.6-27,39.8c2.7,0.4,5.5,0.7,8.2,1.1 c-5.6-15.2-15.6-27.5-25.3-40.2c-9.5-12.5-19.7-26.6-21.2-42.7c-1.1-12.2,4-26.8,15.7-32.3c7.7-3.6,15.1-1.6,18.6,6.3 c3.7,8.3,0.7,17.9-1.7,26.2C995.9,722,1004.6,724.4,1006.2,718.8L1006.2,718.8z"/> </g> </g> <g> <path class="st1" d="M1682.1,458.9c0.8-7.6,1.7-15.5-0.6-22.8c-2.2-7.3-8.3-14-15.9-14.5c-3.1-0.2-6.2,0.6-9,2 c-14.6,6.9-19.8,26.2-15.4,41.7c4.3,15.5,15.9,27.9,27.6,38.8s24.5,21.5,32.3,35.6c5.9-13,11.8-26,17.7-39.1 c4.3-9.5,8.6-19,10.5-29.2c1.2-6.5,1.5-13.1,1.7-19.7c0.2-6.8,0.2-14.5-4.5-19.4c-7.1-7.5-20.2-3.8-27.9,3.1s-13.3,16.4-22.2,21.6 "/> <g> <path class="st1" d="M1686.6,458.9c1.5-13.9,1.7-31-12.1-39.1c-11.8-7-25.8,0.7-32.7,11c-16.8,25.2,0.6,53.8,19.1,72 c12.7,12.5,27.2,23.5,36.3,39.1c1.6,2.7,6.3,3.2,7.8,0c7.6-16.7,15.6-33.3,22.7-50.2c6.4-15.3,9.7-33,7.7-49.6 c-1.8-14.3-14.1-21.7-27.7-17.1c-14.9,5-20.8,20.2-33.5,28c-4.9,3-0.4,10.8,4.5,7.8c10.6-6.5,16.2-18.6,26.7-24.9 c4.4-2.7,10.9-4.9,15.8-2.2c5.9,3.2,5.5,11.4,5.4,17.2c-0.2,7.3-0.5,14.8-2.1,21.9c-1.7,7.4-4.6,14.4-7.6,21.3 c-6.5,14.5-13.1,28.8-19.6,43.3c2.6,0,5.2,0,7.8,0c-8.1-14-20.1-24.5-31.8-35.4c-11.6-10.7-23.8-22.8-27.9-38.6 c-3.1-11.8-0.3-27.3,10.7-34.4c7.2-4.6,14.8-3.3,19.3,4.1c4.6,7.6,3.2,17.4,2.3,25.8C1677,464.6,1686,464.6,1686.6,458.9 L1686.6,458.9z"/> </g> </g> <g> <path class="st1" d="M1750.4,726.2c6.8-10.2-3.2-26-15.5-25.8c-12.3,0.1-21.9,13.5-20.2,25.6c1.1,7.7,5.7,14.4,10.1,20.8 c6.9,9.8,13.7,19.7,20.6,29.5c0.9,1.3,1.9,2.7,3.4,3.2c1.1,0.4,2.3,0.2,3.4,0c30.4-5.2,54.5-35.2,53-66c-0.1-2.1-0.4-4.3-1.6-5.9 c-1.4-1.9-3.7-2.7-6-3.3c-17.5-4.4-37.5,4-46.7,19.5"/> <g> <path class="st1" d="M1754.2,728.5c5.1-8.6,2.6-19.3-4.3-26.1c-7.3-7.3-18.3-8.5-27-2.9c-8.7,5.6-13.9,16.2-12.7,26.5 c1.5,13.1,11.5,24.1,18.7,34.5c4.4,6.3,8.6,12.9,13.3,19c3.8,4.9,8.2,5,14,3.7c10.9-2.4,21-8,29.3-15.3 c8.4-7.4,15-16.8,19.3-27.1c3.8-9.3,6.9-21.7,4.4-31.7c-3.2-12.6-22.7-11.5-32.4-9.1c-12.3,3-23,10.8-29.7,21.5 c-3.1,4.9,4.7,9.5,7.8,4.5c4.4-7.1,11-12.6,18.9-15.7c7-2.7,16.9-4.5,24.1-1.4c6.4,2.7,2.1,18.3,0.5,23.5 c-2.4,7.8-6.4,15.2-11.7,21.5c-5.1,6.1-11.1,11.2-18.1,15c-3.6,2-7.4,3.5-11.3,4.7c-1.6,0.5-4.1,1.4-5.8,1.3 c-2.4-0.1-3.1-2.3-4.5-4.3c-6.4-9.2-12.9-18.4-19.2-27.6c-5-7.3-10.7-15.8-8.1-25c2.2-7.5,9.7-15.1,18.1-12.8 c7.5,2.1,12.8,11.6,8.6,18.6C1743.5,728.9,1751.3,733.4,1754.2,728.5L1754.2,728.5z"/> </g> </g> <g> <path class="st1" d="M1818.4,559.2c6.8-10.2-3.2-26-15.5-25.8c-12.3,0.1-21.9,13.5-20.2,25.6c1.1,7.7,5.7,14.4,10.1,20.8 c6.9,9.8,13.7,19.7,20.6,29.5c0.9,1.3,1.9,2.7,3.4,3.2c1.1,0.4,2.3,0.2,3.4,0c30.4-5.2,54.5-35.2,53-66c-0.1-2.1-0.4-4.3-1.6-5.9 c-1.4-1.9-3.7-2.7-6-3.3c-17.5-4.4-37.5,4-46.7,19.5"/> <g> <path class="st1" d="M1822.2,561.5c5.1-8.6,2.6-19.3-4.3-26.1c-7.3-7.3-18.3-8.5-27-2.9c-8.7,5.6-13.9,16.2-12.7,26.5 c1.5,13.1,11.5,24.1,18.7,34.5c4.4,6.3,8.6,12.9,13.3,19c3.8,4.9,8.2,5,14,3.7c10.9-2.4,21-8,29.3-15.3 c8.4-7.4,15-16.8,19.3-27.1c3.8-9.3,6.9-21.7,4.4-31.7c-3.2-12.6-22.7-11.5-32.4-9.1c-12.3,3-23,10.8-29.7,21.5 c-3.1,4.9,4.7,9.5,7.8,4.5c4.4-7.1,11-12.6,18.9-15.7c7-2.7,16.9-4.5,24.1-1.4c6.4,2.7,2.1,18.3,0.5,23.5 c-2.4,7.8-6.4,15.2-11.7,21.5c-5.1,6.1-11.1,11.2-18.1,15c-3.6,2-7.4,3.5-11.3,4.7c-1.6,0.5-4.1,1.4-5.8,1.3 c-2.4-0.1-3.1-2.3-4.5-4.3c-6.4-9.2-12.9-18.4-19.2-27.6c-5-7.3-10.7-15.8-8.1-25c2.2-7.5,9.7-15.1,18.1-12.8 c7.5,2.1,12.8,11.6,8.6,18.6C1811.5,561.9,1819.3,566.4,1822.2,561.5L1822.2,561.5z"/> </g> </g> <g> <path class="st2" d="M1658.3,918c-0.3,19.6,16.2,35.6,31,49.8c14.8,14.2,29.9,32.2,25.7,51.4c20.3-36.9,74.5-53.1,87.1-92.7 c2.4-7.6,3.1-15.6,2.8-23.6c-0.2-8.4-1.8-17.5-8.3-23.3c-6.7-6-17-7.2-26.3-6.1c-20.9,2.4-40.1,14.9-49.5,32.1 c-0.9-4.5-1.7-8.9-3.2-13.2c-2.7-7.6-8.2-15.2-16.7-17.4c-11.9-3.1-23.7,5.4-30.9,14.6C1663.5,897.9,1658.5,907.7,1658.3,918z"/> <g> <path class="st2" d="M1653.8,918c0.1,19.7,13.9,35,27.1,48c13.6,13.3,33.8,30.6,29.7,52c-0.9,4.8,5.6,8.2,8.2,3.5 c17-30.3,52.1-43.7,73.8-69.7c12.4-14.8,18-32.5,16.6-51.8c-0.7-9.6-3.5-19.3-11.5-25.2c-8-5.9-18.6-6.8-28.2-5.7 c-21.6,2.6-41.9,15.1-52.7,34.2c2.7,0.4,5.5,0.7,8.2,1.1c-1.9-9.7-4.2-19.7-11.5-26.9c-6.7-6.7-16.3-9.1-25.4-6.5 C1669.2,876.5,1654.6,898.7,1653.8,918c-0.2,5.8,8.8,5.8,9,0c0.6-14.9,12.1-32.6,26.4-37.9c7.4-2.7,14.6-0.7,19.6,5.3 c4.9,6,6.3,13.9,7.7,21.3c0.8,3.9,6.4,4.3,8.2,1.1c8.8-15.6,24.7-26.1,42.3-29.4c8.5-1.6,19.6-1.8,26.5,4.3 c7.2,6.4,7.3,17.7,7,26.6c-1.4,34-31.2,52.5-55.3,71.5c-13.1,10.3-25.8,21.5-34,36.1c2.7,1.2,5.5,2.3,8.2,3.5 c4-21-9.9-38.8-23.9-52.9c-13.6-13.6-32.6-28.5-32.7-49.6C1662.8,912.2,1653.8,912.2,1653.8,918z"/> </g> </g> <g> <path class="st2" d="M1636.6,657.8c0.8-7.6,1.7-15.5-0.6-22.8s-8.3-14-15.9-14.5c-3.1-0.2-6.2,0.6-9,2 c-14.6,6.9-19.8,26.2-15.4,41.7c4.3,15.5,15.9,27.9,27.6,38.8c11.8,11,24.5,21.5,32.3,35.6c5.9-13,11.8-26,17.7-39.1 c4.3-9.5,8.6-19,10.5-29.2c1.2-6.5,1.5-13.1,1.7-19.7c0.2-6.8,0.2-14.5-4.5-19.4c-7.1-7.5-20.2-3.8-27.9,3.1 c-7.8,6.9-13.3,16.4-22.2,21.6"/> <g> <path class="st2" d="M1641.1,657.8c1.5-13.9,1.7-31-12.1-39.1c-11.8-7-25.8,0.7-32.7,11c-16.8,25.2,0.6,53.8,19.1,72 c12.7,12.5,27.2,23.5,36.3,39.1c1.6,2.7,6.3,3.2,7.8,0c7.6-16.7,15.6-33.3,22.7-50.2c6.4-15.3,9.7-33,7.7-49.6 c-1.8-14.3-14.1-21.7-27.7-17.1c-14.9,5-20.8,20.2-33.5,28c-4.9,3-0.4,10.8,4.5,7.8c10.6-6.5,16.2-18.6,26.7-24.9 c4.4-2.7,10.9-4.9,15.8-2.2c5.9,3.2,5.5,11.4,5.4,17.2c-0.2,7.3-0.5,14.8-2.1,21.9c-1.7,7.4-4.6,14.4-7.6,21.3 c-6.5,14.5-13.1,28.8-19.6,43.3c2.6,0,5.2,0,7.8,0c-8.1-14-20.1-24.5-31.8-35.4c-11.6-10.7-23.8-22.8-27.9-38.6 c-3.1-11.8-0.3-27.3,10.7-34.4c7.2-4.6,14.8-3.3,19.3,4.1c4.6,7.6,3.2,17.4,2.3,25.8C1631.5,663.5,1640.5,663.5,1641.1,657.8 L1641.1,657.8z"/> </g> </g> <g> <path class="st2" d="M1483.5,927.1c3.8-11.7-10-24.2-21.8-20.8c-11.8,3.4-17.6,18.8-12.6,30.1c3.1,7.1,9.3,12.3,15.3,17.3 c9.2,7.7,18.5,15.3,27.7,23c1.2,1,2.5,2.1,4.1,2.1c1.2,0.1,2.3-0.4,3.3-0.9c27.9-13.1,43.2-48.4,33.5-77.7c-0.7-2-1.5-4-3.1-5.3 c-1.8-1.4-4.3-1.6-6.6-1.5c-18.1,0.5-35,13.8-39.8,31.2"/> <g> <path class="st2" d="M1487.9,928.3c2.9-10.4-3.5-20.7-13-25c-9.5-4.3-20-1.1-26.3,7.1c-6,8-7.5,19.1-3.3,28.3 c5.5,12.1,18.4,20.2,28.3,28.4c5.5,4.6,10.8,9.6,16.6,13.7c5.7,4.1,10.9,1.7,16.4-1.6c9.2-5.4,16.9-13.3,22.6-22.3 c5.7-9.1,9.4-19.5,10.7-30.1c1.2-10,0.9-22.9-4.2-31.9c-6.4-11.4-24.9-5.1-33.7-0.2c-11.1,6.2-19.3,16.5-22.9,28.6 c-1.6,5.6,7,7.9,8.7,2.4c2.4-8.1,7.3-15.1,14-20.1c5.7-4.3,16.2-9.6,23.7-7.7c3.8,1,4.4,7.3,5.1,10.6c0.8,4,1,8.1,0.9,12.2 c-0.3,8-2.2,16-5.4,23.3c-3.2,7.1-7.6,13.6-13.1,19c-2.6,2.6-5.4,4.9-8.5,6.9c-1.5,1-3.1,1.9-4.7,2.8c-0.5,0.3-2.4,1.5-3,1.4 c-1.4-0.1-3.5-2.5-4.5-3.3c-8.6-7.1-17.2-14.2-25.8-21.4c-6.3-5.3-13.7-11.5-14.5-20.3c-0.7-7.4,3.3-16.5,11-18.6 c8.6-2.4,18.7,6.4,16.3,15.2C1477.7,931.5,1486.3,933.9,1487.9,928.3L1487.9,928.3z"/> </g> </g> <g> <path class="st2" d="M1289.6,570.9c1.4-12.2-14.6-21.7-25.5-16c-10.9,5.7-13.5,21.9-6.4,32c4.5,6.4,11.6,10.2,18.4,13.9 c10.6,5.7,21.1,11.3,31.7,17c1.4,0.7,2.9,1.5,4.4,1.3c1.1-0.2,2.1-0.8,3.1-1.5c24.8-18.4,32.7-56.1,17.4-82.8 c-1-1.8-2.2-3.6-4.1-4.6c-2.1-1-4.5-0.7-6.8-0.2c-17.6,4.1-31.6,20.5-32.8,38.5"/> <g> <path class="st2" d="M1294.1,570.9c0.7-10.1-6.9-18.5-16.2-21.2c-9.6-2.9-19.3,1.1-24.5,9.4c-5.4,8.5-5.4,20.4-0.1,29 c6.8,11,20.4,16.4,31.3,22.2c7,3.8,14,7.8,21.1,11.3c6.2,3,10.1,1.5,15.1-2.6c8.3-6.8,14.6-15.8,18.7-25.7 c4.2-9.9,6.2-20.9,5.6-31.7c-0.6-10.7-3.4-23.3-10.1-31.9c-8.2-10.5-24.7-1.4-32.7,5c-10.3,8.3-16.6,20.5-17.7,33.6 c-0.5,5.8,8.5,5.7,9,0c0.7-8.6,4.5-16.6,10.4-22.9c2.8-3,6-5.6,9.7-7.6c2.9-1.6,9.1-5.1,12.6-3.9c3.2,1.1,5.5,8.3,6.5,11.1 c1.4,3.8,2.4,7.8,2.9,11.8c1.1,7.9,0.5,16-1.4,23.8c-1.9,7.5-5.1,14.7-9.6,21c-2.2,3.2-4.9,6.1-7.7,8.7c-1,0.9-3.3,3.6-4.7,3.9 c-2.4,0.5-7-3.1-9.1-4.2c-9.6-5.1-19.3-10.1-28.8-15.5c-7.4-4.2-14.9-9.5-15.9-18.7c-0.8-7.5,2.9-17.1,11.3-18.2 c7.7-1,16,5.1,15.4,13.1C1284.7,576.7,1293.7,576.7,1294.1,570.9L1294.1,570.9z"/> </g> </g> <g> <path class="st2" d="M1177.6,389.9c1.4-12.2-14.6-21.7-25.5-16c-10.9,5.7-13.5,21.9-6.4,32c4.5,6.4,11.6,10.2,18.4,13.9 c10.6,5.7,21.1,11.3,31.7,17c1.4,0.7,2.9,1.5,4.4,1.3c1.1-0.2,2.1-0.8,3.1-1.5c24.8-18.4,32.7-56.1,17.4-82.8 c-1-1.8-2.2-3.6-4.1-4.6c-2.1-1-4.5-0.7-6.8-0.2c-17.6,4.1-31.6,20.5-32.8,38.5"/> <g> <path class="st2" d="M1182.1,389.9c0.7-10.1-6.9-18.5-16.2-21.2c-9.6-2.9-19.3,1.1-24.5,9.4c-5.4,8.5-5.4,20.4-0.1,29 c6.8,11,20.4,16.4,31.3,22.2c7,3.8,14,7.8,21.1,11.3c6.2,3,10.1,1.5,15.1-2.6c8.3-6.8,14.6-15.8,18.7-25.7 c4.2-9.9,6.2-20.9,5.6-31.7c-0.6-10.7-3.4-23.3-10.1-31.9c-8.2-10.5-24.7-1.4-32.7,5c-10.3,8.3-16.6,20.5-17.7,33.6 c-0.5,5.8,8.5,5.7,9,0c0.7-8.6,4.5-16.6,10.4-22.9c2.8-3,6-5.6,9.7-7.6c2.9-1.6,9.1-5.1,12.6-3.9c3.2,1.1,5.5,8.3,6.5,11.1 c1.4,3.8,2.4,7.8,2.9,11.8c1.1,7.9,0.5,16-1.4,23.8c-1.9,7.5-5.1,14.7-9.6,21c-2.2,3.2-4.9,6.1-7.7,8.7c-1,0.9-3.3,3.6-4.7,3.9 c-2.4,0.5-7-3.1-9.1-4.2c-9.6-5.1-19.3-10.1-28.8-15.5c-7.4-4.2-14.9-9.5-15.9-18.7c-0.8-7.5,2.9-17.1,11.3-18.2 c7.7-1,16,5.1,15.4,13.1C1172.7,395.7,1181.7,395.7,1182.1,389.9L1182.1,389.9z"/> </g> </g> <g> <path class="st2" d="M1543.6,86.9c1.4-12.2-14.6-21.7-25.5-16c-10.9,5.7-13.5,21.9-6.4,32c4.5,6.4,11.6,10.2,18.4,13.9 c10.6,5.7,21.1,11.3,31.7,17c1.4,0.7,2.9,1.5,4.4,1.3c1.1-0.2,2.1-0.8,3.1-1.5c24.8-18.4,32.7-56.1,17.4-82.8 c-1-1.8-2.2-3.6-4.1-4.6c-2.1-1-4.5-0.7-6.8-0.2c-17.6,4.1-31.6,20.5-32.8,38.5"/> <g> <path class="st2" d="M1548.1,86.9c0.7-10.1-6.9-18.5-16.2-21.2c-9.6-2.9-19.3,1.1-24.5,9.4c-5.4,8.5-5.4,20.4-0.1,29 c6.8,11,20.4,16.4,31.3,22.2c7,3.8,14,7.8,21.1,11.3c6.2,3,10.1,1.5,15.1-2.6c8.3-6.8,14.6-15.8,18.7-25.7 c4.2-9.9,6.2-20.9,5.6-31.7c-0.6-10.7-3.4-23.3-10.1-31.9c-8.2-10.5-24.7-1.4-32.7,5c-10.3,8.3-16.6,20.5-17.7,33.6 c-0.5,5.8,8.5,5.7,9,0c0.7-8.6,4.5-16.6,10.4-22.9c2.8-3,6-5.6,9.7-7.6c2.9-1.6,9.1-5.1,12.6-3.9c3.2,1.1,5.5,8.3,6.5,11.1 c1.4,3.8,2.4,7.8,2.9,11.8c1.1,7.9,0.5,16-1.4,23.8c-1.9,7.5-5.1,14.7-9.6,21c-2.2,3.2-4.9,6.1-7.7,8.7c-1,0.9-3.3,3.6-4.7,3.9 c-2.4,0.5-7-3.1-9.1-4.2c-9.6-5.1-19.3-10.1-28.8-15.5c-7.4-4.2-14.9-9.5-15.9-18.7c-0.8-7.5,2.9-17.1,11.3-18.2 c7.7-1,16,5.1,15.4,13.1C1538.7,92.7,1547.7,92.7,1548.1,86.9L1548.1,86.9z"/> </g> </g> <g> <path class="st1" d="M544.6,887.1c-0.3,19.6,16.2,35.6,31,49.8c14.8,14.2,29.9,32.2,25.7,51.4c20.3-36.9,74.5-53.1,87.1-92.7 c2.4-7.6,3.1-15.6,2.8-23.6c-0.2-8.4-1.8-17.5-8.3-23.3c-6.7-6-17-7.2-26.3-6.1c-20.9,2.4-40.1,14.9-49.5,32.1 c-0.9-4.5-1.7-8.9-3.2-13.2c-2.7-7.6-8.2-15.2-16.7-17.4c-11.9-3.1-23.7,5.4-30.9,14.6C549.8,867,544.8,876.8,544.6,887.1z"/> <g> <path class="st1" d="M540.1,887.1c0.1,19.7,13.9,35,27.1,48c13.6,13.3,33.8,30.6,29.7,52c-0.9,4.8,5.6,8.2,8.2,3.5 c17-30.3,52.1-43.7,73.8-69.7c12.4-14.8,18-32.5,16.6-51.8c-0.7-9.6-3.5-19.3-11.5-25.2c-8-5.9-18.6-6.8-28.2-5.7 c-21.6,2.6-41.9,15.1-52.7,34.2c2.7,0.4,5.5,0.7,8.2,1.1c-1.9-9.7-4.2-19.7-11.5-26.9c-6.7-6.7-16.3-9.1-25.4-6.5 C555.5,845.6,540.9,867.8,540.1,887.1c-0.2,5.8,8.8,5.8,9,0c0.6-14.9,12.1-32.6,26.4-37.9c7.4-2.7,14.6-0.7,19.6,5.3 c4.9,6,6.3,13.9,7.7,21.3c0.8,3.9,6.4,4.3,8.2,1.1c8.8-15.6,24.7-26.1,42.3-29.4c8.5-1.6,19.6-1.8,26.5,4.3 c7.2,6.4,7.3,17.7,7,26.6c-1.4,34-31.2,52.5-55.3,71.5c-13.1,10.3-25.8,21.5-34,36.1c2.7,1.2,5.5,2.3,8.2,3.5 c4-21-9.9-38.8-23.9-52.9c-13.6-13.6-32.6-28.5-32.7-49.6C549,881.3,540,881.3,540.1,887.1z"/> </g> </g> <g> <path class="st1" d="M726.9,388.9c0.8-7.6,1.7-15.5-0.6-22.8c-2.2-7.3-8.3-14-15.9-14.5c-3.1-0.2-6.2,0.6-9,2 c-14.6,6.9-19.8,26.2-15.4,41.7c4.3,15.5,15.9,27.9,27.6,38.8s24.5,21.5,32.3,35.6c5.9-13,11.8-26,17.7-39.1 c4.3-9.5,8.6-19,10.5-29.2c1.2-6.5,1.5-13.1,1.7-19.7c0.2-6.8,0.2-14.5-4.5-19.4c-7.1-7.5-20.2-3.8-27.9,3.1 c-7.8,6.9-13.3,16.4-22.2,21.6"/> <g> <path class="st1" d="M731.4,388.9c1.5-13.9,1.7-31-12.1-39.1c-11.8-7-25.8,0.7-32.7,11c-16.8,25.2,0.6,53.8,19.1,72 c12.7,12.5,27.2,23.5,36.3,39.1c1.6,2.7,6.3,3.2,7.8,0c7.6-16.7,15.6-33.3,22.7-50.2c6.4-15.3,9.7-33,7.7-49.6 c-1.8-14.3-14.1-21.7-27.7-17.1c-14.9,5-20.8,20.2-33.5,28c-4.9,3-0.4,10.8,4.5,7.8c10.6-6.5,16.2-18.6,26.7-24.9 c4.4-2.7,10.9-4.9,15.8-2.2c5.9,3.2,5.5,11.4,5.4,17.2c-0.2,7.3-0.5,14.8-2.1,21.9c-1.7,7.4-4.6,14.4-7.6,21.3 c-6.5,14.5-13.1,28.8-19.6,43.3c2.6,0,5.2,0,7.8,0c-8.1-14-20.1-24.5-31.8-35.4c-11.6-10.7-23.8-22.8-27.9-38.6 c-3.1-11.8-0.3-27.3,10.7-34.4c7.2-4.6,14.8-3.3,19.3,4.1c4.6,7.6,3.2,17.4,2.3,25.8C721.8,394.6,730.8,394.6,731.4,388.9 L731.4,388.9z"/> </g> </g> <g> <path class="st1" d="M415.2,748.2c6.8-10.2-3.2-26-15.5-25.8c-12.3,0.1-21.9,13.5-20.2,25.6c1.1,7.7,5.7,14.4,10.1,20.8 c6.9,9.8,13.7,19.7,20.6,29.5c0.9,1.3,1.9,2.7,3.4,3.2c1.1,0.4,2.3,0.2,3.4,0c30.4-5.2,54.5-35.2,53-66c-0.1-2.1-0.4-4.3-1.6-5.9 c-1.4-1.9-3.7-2.7-6-3.3c-17.5-4.4-37.5,4-46.7,19.5"/> <g> <path class="st1" d="M419.1,750.5c5.1-8.6,2.6-19.3-4.3-26.1c-7.3-7.3-18.3-8.5-27-2.9c-8.7,5.6-13.9,16.2-12.7,26.5 c1.5,13.1,11.5,24.1,18.7,34.5c4.4,6.3,8.6,12.9,13.3,19c3.8,4.9,8.2,5,14,3.7c10.9-2.4,21-8,29.3-15.3 c8.4-7.4,15-16.8,19.3-27.1c3.8-9.3,6.9-21.7,4.4-31.7c-3.2-12.6-22.7-11.5-32.4-9.1c-12.3,3-23,10.8-29.7,21.5 c-3.1,4.9,4.7,9.5,7.8,4.5c4.4-7.1,11-12.6,18.9-15.7c7-2.7,16.9-4.5,24.1-1.4c6.4,2.7,2.1,18.3,0.5,23.5 c-2.4,7.8-6.4,15.2-11.7,21.5c-5.1,6.1-11.1,11.2-18.1,15c-3.6,2-7.4,3.5-11.3,4.7c-1.6,0.5-4.1,1.4-5.8,1.3 c-2.4-0.1-3.1-2.3-4.5-4.3c-6.4-9.2-12.9-18.4-19.2-27.6c-5-7.3-10.7-15.8-8.1-25c2.2-7.5,9.7-15.1,18.1-12.8 c7.5,2.1,12.8,11.6,8.6,18.6C408.3,750.9,416.1,755.4,419.1,750.5L419.1,750.5z"/> </g> </g> <g> <path class="st1" d="M601.2,257.2c6.8-10.2-3.2-26-15.5-25.8c-12.3,0.1-21.9,13.5-20.2,25.6c1.1,7.7,5.7,14.4,10.1,20.8 c6.9,9.8,13.7,19.7,20.6,29.5c0.9,1.3,1.9,2.7,3.4,3.2c1.1,0.4,2.3,0.2,3.4,0c30.4-5.2,54.5-35.2,53-66c-0.1-2.1-0.4-4.3-1.6-5.9 c-1.4-1.9-3.7-2.7-6-3.3c-17.5-4.4-37.5,4-46.7,19.5"/> <g> <path class="st1" d="M605.1,259.5c5.1-8.6,2.6-19.3-4.3-26.1c-7.3-7.3-18.3-8.5-27-2.9c-8.7,5.6-13.9,16.2-12.7,26.5 c1.5,13.1,11.5,24.1,18.7,34.5c4.4,6.3,8.6,12.9,13.3,19c3.8,4.9,8.2,5,14,3.7c10.9-2.4,21-8,29.3-15.3 c8.4-7.4,15-16.8,19.3-27.1c3.8-9.3,6.9-21.7,4.4-31.7c-3.2-12.6-22.7-11.5-32.4-9.1c-12.3,3-23,10.8-29.7,21.5 c-3.1,4.9,4.7,9.5,7.8,4.5c4.4-7.1,11-12.6,18.9-15.7c7-2.7,16.9-4.5,24.1-1.4c6.4,2.7,2.1,18.3,0.5,23.5 c-2.4,7.8-6.4,15.2-11.7,21.5c-5.1,6.1-11.1,11.2-18.1,15c-3.6,2-7.4,3.5-11.3,4.7c-1.6,0.5-4.1,1.4-5.8,1.3 c-2.4-0.1-3.1-2.3-4.5-4.3c-6.4-9.2-12.9-18.4-19.2-27.6c-5-7.3-10.7-15.8-8.1-25c2.2-7.5,9.7-15.1,18.1-12.8 c7.5,2.1,12.8,11.6,8.6,18.6C594.3,259.9,602.1,264.4,605.1,259.5L605.1,259.5z"/> </g> </g> <g> <path class="st1" d="M324.2,83.2c6.8-10.2-3.2-26-15.5-25.8c-12.3,0.1-21.9,13.5-20.2,25.6c1.1,7.7,5.7,14.4,10.1,20.8 c6.9,9.8,13.7,19.7,20.6,29.5c0.9,1.3,1.9,2.7,3.4,3.2c1.1,0.4,2.3,0.2,3.4,0c30.4-5.2,54.5-35.2,53-66c-0.1-2.1-0.4-4.3-1.6-5.9 c-1.4-1.9-3.7-2.7-6-3.3c-17.5-4.4-37.5,4-46.7,19.5"/> <g> <path class="st1" d="M328.1,85.5c5.1-8.6,2.6-19.3-4.3-26.1c-7.3-7.3-18.3-8.5-27-2.9c-8.7,5.6-13.9,16.2-12.7,26.5 c1.5,13.1,11.5,24.1,18.7,34.5c4.4,6.3,8.6,12.9,13.3,19c3.8,4.9,8.2,5,14,3.7c10.9-2.4,21-8,29.3-15.3 c8.4-7.4,15-16.8,19.3-27.1c3.8-9.3,6.9-21.7,4.4-31.7c-3.2-12.6-22.7-11.5-32.4-9.1c-12.3,3-23,10.8-29.7,21.5 c-3.1,4.9,4.7,9.5,7.8,4.5c4.4-7.1,11-12.6,18.9-15.7c7-2.7,16.9-4.5,24.1-1.4c6.4,2.7,2.1,18.3,0.5,23.5 c-2.4,7.8-6.4,15.2-11.7,21.5c-5.1,6.1-11.1,11.2-18.1,15c-3.6,2-7.4,3.5-11.3,4.7c-1.6,0.5-4.1,1.4-5.8,1.3 c-2.4-0.1-3.1-2.3-4.5-4.3c-6.4-9.2-12.9-18.4-19.2-27.6c-5-7.3-10.7-15.8-8.1-25c2.2-7.5,9.7-15.1,18.1-12.8 c7.5,2.1,12.8,11.6,8.6,18.6C317.3,85.9,325.1,90.4,328.1,85.5L328.1,85.5z"/> </g> </g> <g> <path class="st1" d="M997.2,356.2c6.8-10.2-3.2-26-15.5-25.8c-12.3,0.1-21.9,13.5-20.2,25.6c1.1,7.7,5.7,14.4,10.1,20.8 c6.9,9.8,13.7,19.7,20.6,29.5c0.9,1.3,1.9,2.7,3.4,3.2c1.1,0.4,2.3,0.2,3.4,0c30.4-5.2,54.5-35.2,53-66c-0.1-2.1-0.4-4.3-1.6-5.9 c-1.4-1.9-3.7-2.7-6-3.3c-17.5-4.4-37.5,4-46.7,19.5"/> <g> <path class="st1" d="M1001.1,358.5c5.1-8.6,2.6-19.3-4.3-26.1c-7.3-7.3-18.3-8.5-27-2.9c-8.7,5.6-13.9,16.2-12.7,26.5 c1.5,13.1,11.5,24.1,18.7,34.5c4.4,6.3,8.6,12.9,13.3,19c3.8,4.9,8.2,5,14,3.7c10.9-2.4,21-8,29.3-15.3 c8.4-7.4,15-16.8,19.3-27.1c3.8-9.3,6.9-21.7,4.4-31.7c-3.2-12.6-22.7-11.5-32.4-9.1c-12.3,3-23,10.8-29.7,21.5 c-3.1,4.9,4.7,9.5,7.8,4.5c4.4-7.1,11-12.6,18.9-15.7c7-2.7,16.9-4.5,24.1-1.4c6.4,2.7,2.1,18.3,0.5,23.5 c-2.4,7.8-6.4,15.2-11.7,21.5c-5.1,6.1-11.1,11.2-18.1,15c-3.6,2-7.4,3.5-11.3,4.7c-1.6,0.5-4.1,1.4-5.8,1.3 c-2.4-0.1-3.1-2.3-4.5-4.3c-6.4-9.2-12.9-18.4-19.2-27.6c-5-7.3-10.7-15.8-8.1-25c2.2-7.5,9.7-15.1,18.1-12.8 c7.5,2.1,12.8,11.6,8.6,18.6C990.3,358.9,998.1,363.4,1001.1,358.5L1001.1,358.5z"/> </g> </g> <g> <path class="st2" d="M464.3,101.9c-0.3,19.6,16.2,35.6,31,49.8c14.8,14.2,29.9,32.2,25.7,51.4c20.3-36.9,74.5-53.1,87.1-92.7 c2.4-7.6,3.1-15.6,2.8-23.6c-0.2-8.4-1.8-17.5-8.3-23.3c-6.7-6-17-7.2-26.3-6.1c-20.9,2.4-40.1,14.9-49.5,32.1 c-0.9-4.5-1.7-8.9-3.2-13.2c-2.7-7.6-8.2-15.2-16.7-17.4c-11.9-3.1-23.7,5.4-30.9,14.6C469.5,81.9,464.5,91.6,464.3,101.9z"/> <g> <path class="st2" d="M459.8,101.9c0.1,19.7,13.9,35,27.1,48c13.6,13.3,33.8,30.6,29.7,52c-0.9,4.8,5.6,8.2,8.2,3.5 c17-30.3,52.1-43.7,73.8-69.7c12.4-14.8,18-32.5,16.6-51.8c-0.7-9.6-3.5-19.3-11.5-25.2c-8-5.9-18.6-6.8-28.2-5.7 C554,55.6,533.7,68.1,523,87.2c2.7,0.4,5.5,0.7,8.2,1.1c-1.9-9.7-4.2-19.7-11.5-26.9c-6.7-6.7-16.3-9.1-25.4-6.5 C475.2,60.4,460.6,82.7,459.8,101.9c-0.2,5.8,8.8,5.8,9,0c0.6-14.9,12.1-32.6,26.4-37.9c7.4-2.7,14.6-0.7,19.6,5.3 c4.9,6,6.3,13.9,7.7,21.3c0.8,3.9,6.4,4.3,8.2,1.1c8.8-15.6,24.7-26.1,42.3-29.4c8.5-1.6,19.6-1.8,26.5,4.3 c7.2,6.4,7.3,17.7,7,26.6c-1.4,34-31.2,52.5-55.3,71.5c-13.1,10.3-25.8,21.5-34,36.1c2.7,1.2,5.5,2.3,8.2,3.5 c4-21-9.9-38.8-23.9-52.9c-13.6-13.6-32.6-28.5-32.7-49.6C468.8,96.1,459.8,96.1,459.8,101.9z"/> </g> </g> <g> <path class="st2" d="M703.1,723.2c-0.3,12.8,12.8,23.1,24.5,32.4c11.7,9.2,23.6,20.9,20.3,33.4c16-24,58.9-34.5,68.8-60.2 c1.9-5,2.4-10.2,2.2-15.3c-0.2-5.5-1.4-11.3-6.6-15.2c-5.3-3.9-13.4-4.7-20.8-4c-16.5,1.5-31.7,9.7-39.1,20.9 c-0.7-2.9-1.3-5.8-2.5-8.6c-2.1-5-6.5-9.9-13.2-11.3c-9.4-2-18.7,3.5-24.4,9.5C707.2,710.2,703.3,716.5,703.1,723.2z"/> <g> <path class="st2" d="M698.6,723.2c0.2,13.4,10.5,23.1,20.1,31c9.4,7.7,28,19.1,24.8,33.6c-1.1,5.1,5.3,7.7,8.2,3.5 c14.2-20.7,41.3-28,58.7-45.5c9.8-9.8,14.5-22.6,12.6-36.5c-2.2-16.3-17.8-21-32.3-19.4c-16.4,1.7-32.6,9.2-42.2,23 c2.7,0.4,5.5,0.7,8.2,1.1c-1.7-7.3-4.1-14.1-10.2-18.9c-5.7-4.5-13.1-5.6-20-4C712.5,694.5,699.6,708.6,698.6,723.2 c-0.4,5.8,8.6,5.8,9,0c0.7-10.1,10.5-20.1,19.9-23c5-1.6,10.4-1,14.5,2.6c3.9,3.5,5.1,8.6,6.3,13.6c1,4,6.1,4.1,8.2,1.1 c9.3-13.5,29.2-21,45.2-18.5c4.2,0.7,8.6,2.2,10.9,6.1c2.1,3.5,2.1,8,2,11.9c-0.3,7.6-3,14.3-8,20 c-17.8,20.3-46.8,27.2-62.5,49.8c2.7,1.2,5.5,2.3,8.2,3.5c3.2-14.6-7.7-26.3-18.1-35.1c-9.6-8.1-26.3-17.7-26.5-31.9 C707.5,717.4,698.5,717.4,698.6,723.2z"/> </g> </g> <g> <path class="st2" d="M782.1,507.2c-0.3,12.8,12.8,23.1,24.5,32.4c11.7,9.2,23.6,20.9,20.3,33.4c16-24,58.9-34.5,68.8-60.2 c1.9-5,2.4-10.2,2.2-15.3c-0.2-5.5-1.4-11.3-6.6-15.2c-5.3-3.9-13.4-4.7-20.8-4c-16.5,1.5-31.7,9.7-39.1,20.9 c-0.7-2.9-1.3-5.8-2.5-8.6c-2.1-5-6.5-9.9-13.2-11.3c-9.4-2-18.7,3.5-24.4,9.5C786.2,494.2,782.3,500.5,782.1,507.2z"/> <g> <path class="st2" d="M777.6,507.2c0.2,13.4,10.5,23.1,20.1,31c9.4,7.7,28,19.1,24.8,33.6c-1.1,5.1,5.3,7.7,8.2,3.5 c14.2-20.7,41.3-28,58.7-45.5c9.8-9.8,14.5-22.6,12.6-36.5c-2.2-16.3-17.8-21-32.3-19.4c-16.4,1.7-32.6,9.2-42.2,23 c2.7,0.4,5.5,0.7,8.2,1.1c-1.7-7.3-4.1-14.1-10.2-18.9c-5.7-4.5-13.1-5.6-20-4C791.5,478.5,778.6,492.6,777.6,507.2 c-0.4,5.8,8.6,5.8,9,0c0.7-10.1,10.5-20.1,19.9-23c5-1.6,10.4-1,14.5,2.6c3.9,3.5,5.1,8.6,6.3,13.6c1,4,6.1,4.1,8.2,1.1 c9.3-13.5,29.2-21,45.2-18.5c4.2,0.7,8.6,2.2,10.9,6.1c2.1,3.5,2.1,8,2,11.9c-0.3,7.6-3,14.3-8,20 c-17.8,20.3-46.8,27.2-62.5,49.8c2.7,1.2,5.5,2.3,8.2,3.5c3.2-14.6-7.7-26.3-18.1-35.1c-9.6-8.1-26.3-17.7-26.5-31.9 C786.5,501.4,777.5,501.4,777.6,507.2z"/> </g> </g> <g> <path class="st2" d="M375.7,249.7c0.8-7.6,1.7-15.5-0.6-22.8c-2.2-7.3-8.3-14-15.9-14.5c-3.1-0.2-6.2,0.6-9,2 c-14.6,6.9-19.8,26.2-15.4,41.7c4.3,15.5,15.9,27.9,27.6,38.8c11.8,11,24.5,21.5,32.3,35.6c5.9-13,11.8-26,17.7-39.1 c4.3-9.5,8.6-19,10.5-29.2c1.2-6.5,1.5-13.1,1.7-19.7c0.2-6.8,0.2-14.5-4.5-19.4c-7.1-7.5-20.2-3.8-27.9,3.1S379,242.5,370,247.7"/> <g> <path class="st2" d="M380.2,249.7c1.5-13.9,1.7-31-12.1-39.1c-11.8-7-25.8,0.7-32.7,11c-16.8,25.2,0.6,53.8,19.1,72 c12.7,12.5,27.2,23.5,36.3,39.1c1.6,2.7,6.3,3.2,7.8,0c7.6-16.7,15.6-33.3,22.7-50.2c6.4-15.3,9.7-33,7.7-49.6 c-1.8-14.3-14.1-21.7-27.7-17.1c-14.9,5-20.8,20.2-33.5,28c-4.9,3-0.4,10.8,4.5,7.8c10.6-6.5,16.2-18.6,26.7-24.9 c4.4-2.7,10.9-4.9,15.8-2.2c5.9,3.2,5.5,11.4,5.4,17.2c-0.2,7.3-0.5,14.8-2.1,21.9c-1.7,7.4-4.6,14.4-7.6,21.3 c-6.5,14.5-13.1,28.8-19.6,43.3c2.6,0,5.2,0,7.8,0c-8.1-14-20.1-24.5-31.8-35.4c-11.6-10.7-23.8-22.8-27.9-38.6 c-3.1-11.8-0.3-27.3,10.7-34.4c7.2-4.6,14.8-3.3,19.3,4.1c4.6,7.6,3.2,17.4,2.3,25.8C370.5,255.5,379.5,255.4,380.2,249.7 L380.2,249.7z"/> </g> </g> <g> <path class="st2" d="M99.9,298c6.8-10.2-3.2-26-15.5-25.8s-21.9,13.5-20.2,25.6c1.1,7.7,5.7,14.4,10.1,20.8 c6.9,9.8,13.7,19.7,20.6,29.5c0.9,1.3,1.9,2.7,3.4,3.2c1.1,0.4,2.3,0.2,3.4,0c30.4-5.2,54.5-35.2,53-66c-0.1-2.1-0.4-4.3-1.6-5.9 c-1.4-1.9-3.7-2.7-6-3.3c-17.5-4.4-37.5,4-46.7,19.5"/> <g> <path class="st2" d="M103.8,300.3c5.1-8.6,2.6-19.3-4.3-26.1c-7.3-7.3-18.3-8.5-27-2.9c-8.7,5.6-13.9,16.2-12.7,26.5 c1.5,13.1,11.5,24.1,18.7,34.5c4.4,6.3,8.6,12.9,13.3,19c3.8,4.9,8.2,5,14,3.7c10.9-2.4,21-8,29.3-15.3 c8.4-7.4,15-16.8,19.3-27.1c3.8-9.3,6.9-21.7,4.4-31.7c-3.2-12.6-22.7-11.5-32.4-9.1c-12.3,3-23,10.8-29.7,21.5 c-3.1,4.9,4.7,9.5,7.8,4.5c4.4-7.1,11-12.6,18.9-15.7c7-2.7,16.9-4.5,24.1-1.4c6.4,2.7,2.1,18.3,0.5,23.5 c-2.4,7.8-6.4,15.2-11.7,21.5c-5.1,6.1-11.1,11.2-18.1,15c-3.6,2-7.4,3.5-11.3,4.7c-1.6,0.5-4.1,1.4-5.8,1.3 c-2.4-0.1-3.1-2.3-4.5-4.3c-6.4-9.2-12.9-18.4-19.2-27.6c-5-7.3-10.7-15.8-8.1-25c2.2-7.5,9.7-15.1,18.1-12.8 c7.5,2.1,12.8,11.6,8.6,18.6C93,300.8,100.8,305.3,103.8,300.3L103.8,300.3z"/> </g> </g> <g> <path class="st2" d="M99.9,529c6.8-10.2-3.2-26-15.5-25.8s-21.9,13.5-20.2,25.6c1.1,7.7,5.7,14.4,10.1,20.8 c6.9,9.8,13.7,19.7,20.6,29.5c0.9,1.3,1.9,2.7,3.4,3.2c1.1,0.4,2.3,0.2,3.4,0c30.4-5.2,54.5-35.2,53-66c-0.1-2.1-0.4-4.3-1.6-5.9 c-1.4-1.9-3.7-2.7-6-3.3c-17.5-4.4-37.5,4-46.7,19.5"/> <g> <path class="st2" d="M103.8,531.3c5.1-8.6,2.6-19.3-4.3-26.1c-7.3-7.3-18.3-8.5-27-2.9c-8.7,5.6-13.9,16.2-12.7,26.5 c1.5,13.1,11.5,24.1,18.7,34.5c4.4,6.3,8.6,12.9,13.3,19c3.8,4.9,8.2,5,14,3.7c10.9-2.4,21-8,29.3-15.3 c8.4-7.4,15-16.8,19.3-27.1c3.8-9.3,6.9-21.7,4.4-31.7c-3.2-12.6-22.7-11.5-32.4-9.1c-12.3,3-23,10.8-29.7,21.5 c-3.1,4.9,4.7,9.5,7.8,4.5c4.4-7.1,11-12.6,18.9-15.7c7-2.7,16.9-4.5,24.1-1.4c6.4,2.7,2.1,18.3,0.5,23.5 c-2.4,7.8-6.4,15.2-11.7,21.5c-5.1,6.1-11.1,11.2-18.1,15c-3.6,2-7.4,3.5-11.3,4.7c-1.6,0.5-4.1,1.4-5.8,1.3 c-2.4-0.1-3.1-2.3-4.5-4.3c-6.4-9.2-12.9-18.4-19.2-27.6c-5-7.3-10.7-15.8-8.1-25c2.2-7.5,9.7-15.1,18.1-12.8 c7.5,2.1,12.8,11.6,8.6,18.6C93,531.8,100.8,536.3,103.8,531.3L103.8,531.3z"/> </g> </g> <g> <path class="st2" d="M765.9,116c6.8-10.2-3.2-26-15.5-25.8c-12.3,0.1-21.9,13.5-20.2,25.6c1.1,7.7,5.7,14.4,10.1,20.8 c6.9,9.8,13.7,19.7,20.6,29.5c0.9,1.3,1.9,2.7,3.4,3.2c1.1,0.4,2.3,0.2,3.4,0c30.4-5.2,54.5-35.2,53-66c-0.1-2.1-0.4-4.3-1.6-5.9 c-1.4-1.9-3.7-2.7-6-3.3c-17.5-4.4-37.5,4-46.7,19.5"/> <g> <path class="st2" d="M769.8,118.3c5.1-8.6,2.6-19.3-4.3-26.1c-7.3-7.3-18.3-8.5-27-2.9c-8.7,5.6-13.9,16.2-12.7,26.5 c1.5,13.1,11.5,24.1,18.7,34.5c4.4,6.3,8.6,12.9,13.3,19c3.8,4.9,8.2,5,14,3.7c10.9-2.4,21-8,29.3-15.3 c8.4-7.4,15-16.8,19.3-27.1c3.8-9.3,6.9-21.7,4.4-31.7c-3.2-12.6-22.7-11.5-32.4-9.1c-12.3,3-23,10.8-29.7,21.5 c-3.1,4.9,4.7,9.5,7.8,4.5c4.4-7.1,11-12.6,18.9-15.7c7-2.7,16.9-4.5,24.1-1.4c6.4,2.7,2.1,18.3,0.5,23.5 c-2.4,7.8-6.4,15.2-11.7,21.5c-5.1,6.1-11.1,11.2-18.1,15c-3.6,2-7.4,3.5-11.3,4.7c-1.6,0.5-4.1,1.4-5.8,1.3 c-2.4-0.1-3.1-2.3-4.5-4.3c-6.4-9.2-12.9-18.4-19.2-27.6c-5-7.3-10.7-15.8-8.1-25c2.2-7.5,9.7-15.1,18.1-12.8 c7.5,2.1,12.8,11.6,8.6,18.6C759,118.8,766.8,123.3,769.8,118.3L769.8,118.3z"/> </g> </g> <g> <path class="st1" d="M256.4,175.1c0.3,19.6-16.2,35.6-31,49.8c-14.8,14.2-29.9,32.2-25.7,51.4c-20.3-36.9-74.5-53.1-87.1-92.7 c-2.4-7.6-3.1-15.6-2.8-23.6c0.2-8.4,1.8-17.5,8.3-23.3c6.7-6,17-7.2,26.3-6.1c20.9,2.4,40.1,14.9,49.5,32.1 c0.9-4.5,1.7-8.9,3.2-13.2c2.7-7.6,8.2-15.2,16.7-17.4c11.9-3.1,23.7,5.4,30.9,14.6C251.2,155,256.2,164.8,256.4,175.1z"/> <g> <path class="st1" d="M251.9,175.1c-0.1,21.1-19,35.9-32.7,49.6c-14,14-27.9,31.8-23.9,52.9c2.7-1.2,5.5-2.3,8.2-3.5 c-15-26.7-43.4-41-65.3-61.2c-11.1-10.2-20.5-22.4-23.2-37.6c-1.6-9.2-2.2-20.9,1.8-29.6c4.4-9.3,14.8-11.4,24.2-10.9 c19.9,1.1,39,12.8,48.8,30.1c1.8,3.2,7.5,2.8,8.2-1.1c1.4-7.1,2.7-14.7,7.2-20.7c4.9-6.5,12.4-8.8,20.1-6 C239.7,142.5,251.2,160.2,251.9,175.1c0.2,5.8,9.2,5.8,9,0c-0.8-19.3-15.4-41.5-34.5-47c-9.1-2.6-18.7-0.2-25.4,6.5 c-7.3,7.2-9.6,17.2-11.5,26.9c2.7-0.4,5.5-0.7,8.2-1.1c-9.5-16.9-26.6-28.9-45.4-33c-19.4-4.3-41.8,0.2-46.1,22.5 c-3.6,18.8,0.6,38.9,11.9,54.2c10.1,13.6,23.7,23.8,37,34c15.2,11.6,31.1,23.5,40.6,40.5c2.6,4.7,9.1,1.4,8.2-3.5 c-4-21.4,16.1-38.7,29.7-52c13.3-13,27.1-28.3,27.1-48C260.9,169.3,251.9,169.3,251.9,175.1z"/> </g> </g> <g> <path class="st1" d="M468,461.9c-0.8-7.6-1.7-15.5,0.6-22.8c2.2-7.3,8.3-14,15.9-14.5c3.1-0.2,6.2,0.6,9,2 c14.6,6.9,19.8,26.2,15.4,41.7c-4.3,15.5-15.9,27.9-27.6,38.8c-11.8,11-24.5,21.5-32.3,35.6c-5.9-13-11.8-26-17.7-39.1 c-4.3-9.5-8.6-19-10.5-29.2c-1.2-6.5-1.5-13.1-1.7-19.7c-0.2-6.8-0.2-14.5,4.5-19.4c7.1-7.5,20.2-3.8,27.9,3.1 s13.3,16.4,22.2,21.6"/> <g> <path class="st1" d="M472.5,461.9c-0.9-8.4-2.3-18.2,2.3-25.8c4.3-7.1,11.6-8.8,18.7-4.4c11.4,6.9,14.4,22.7,11.2,34.7 c-4,15.5-15.9,27.5-27.3,38.1c-11.9,11-24.2,21.7-32.4,35.9c2.6,0,5.2,0,7.8,0c-6.4-14.1-12.9-28.2-19.3-42.4 c-3.1-6.9-6-13.9-7.8-21.2c-1.8-7.5-2.1-15.2-2.3-22.8c-0.2-5.6-0.5-13.3,4.8-16.8c4.7-3.1,11.3-1.1,15.8,1.4 c10.9,6.2,16.6,18.6,27.3,25.2c4.9,3,9.5-4.7,4.5-7.8c-12.5-7.7-18.4-22.6-32.8-27.8c-13.7-4.9-26.5,2.2-28.3,16.8 c-2,16.2,1.1,33.7,7.3,48.7c7.1,17.2,15.3,34.1,23,51.1c1.4,3.2,6.2,2.7,7.8,0c15.5-26.8,46.9-40.7,58.6-70.2 c4.6-11.7,4.7-25-0.7-36.4c-5.1-10.9-17.6-21-30.2-17.6c-18,4.9-18.7,26.2-17,41.2C464.1,467.6,473.1,467.6,472.5,461.9 L472.5,461.9z"/> </g> </g> <g> <path class="st1" d="M866.3,882.6c-2.1-7.4-4.2-15-3.3-22.6c1-7.6,5.8-15.2,13.3-17c3-0.7,6.2-0.4,9.2,0.4 c15.5,4.3,23.9,22.4,22.2,38.5s-10.9,30.1-20.7,42.9c-9.8,12.8-20.5,25.4-25.9,40.5c-8-11.8-16.1-23.7-24.1-35.5 c-5.8-8.6-11.7-17.3-15.3-27c-2.3-6.2-3.6-12.7-5-19.1c-1.4-6.7-2.6-14.2,1.2-19.9c5.8-8.6,19.2-7.2,28-1.7 c8.8,5.5,15.8,13.9,25.6,17.6"/> <g> <path class="st1" d="M870.6,881.4c-2.3-8-5.2-17.3-2-25.5c3.2-7.9,10.4-10.6,18.3-7.3c12.1,5.2,17.4,20.2,16.3,32.5 c-1.4,15.9-11.3,29.8-20.7,42c-9.9,12.9-20.1,25.5-25.8,40.9c2.7-0.4,5.5-0.7,8.2-1.1c-9-13.3-18.1-26.5-27-39.8 c-3.8-5.8-7.6-11.6-10.4-17.9c-3.2-7-4.8-14.5-6.3-22c-1.2-6-3.4-14.9,2.4-19.2c4.2-3.1,10.5-2.2,15.1-0.6 c5.8,2.1,10.5,6.4,15.2,10.2c5.1,4.1,10.2,7.8,16.3,10.2c5.4,2.2,7.7-6.5,2.4-8.7c-13.5-5.4-21.7-19.2-36.8-21.7 c-14.2-2.3-25.8,6.5-25,21.3c0.8,16.2,6.6,32.6,15.1,46.3c9.8,15.8,20.8,31,31.2,46.4c2.3,3.3,6.9,2.6,8.2-1.1 c10.8-29.2,40.7-48.4,46.1-80.2c2.1-12.3-0.3-25.3-7.9-35.3c-7.3-9.7-21.7-17.1-33.4-10.5c-15.7,8.9-12.4,28.9-8.3,43.2 C863.5,889.4,872.2,887,870.6,881.4L870.6,881.4z"/> </g> </g> <g> <path class="st1" d="M233,461.9c-0.8-7.6-1.7-15.5,0.6-22.8c2.2-7.3,8.3-14,15.9-14.5c3.1-0.2,6.2,0.6,9,2 c14.6,6.9,19.8,26.2,15.4,41.7c-4.3,15.5-15.9,27.9-27.6,38.8c-11.8,11-24.5,21.5-32.3,35.6c-5.9-13-11.8-26-17.7-39.1 c-4.3-9.5-8.6-19-10.5-29.2c-1.2-6.5-1.5-13.1-1.7-19.7c-0.2-6.8-0.2-14.5,4.5-19.4c7.1-7.5,20.2-3.8,27.9,3.1 s13.3,16.4,22.2,21.6"/> <g> <path class="st1" d="M237.5,461.9c-0.9-8.4-2.3-18.2,2.3-25.8c4.3-7.1,11.6-8.8,18.7-4.4c11.4,6.9,14.4,22.7,11.2,34.7 c-4,15.5-15.9,27.5-27.3,38.1c-11.9,11-24.2,21.7-32.4,35.9c2.6,0,5.2,0,7.8,0c-6.4-14.1-12.9-28.2-19.3-42.4 c-3.1-6.9-6-13.9-7.8-21.2c-1.8-7.5-2.1-15.2-2.3-22.8c-0.2-5.6-0.5-13.3,4.8-16.8c4.7-3.1,11.3-1.1,15.8,1.4 c10.9,6.2,16.6,18.6,27.3,25.2c4.9,3,9.5-4.7,4.5-7.8c-12.5-7.7-18.4-22.6-32.8-27.8c-13.7-4.9-26.5,2.2-28.3,16.8 c-2,16.2,1.1,33.7,7.3,48.7c7.1,17.2,15.3,34.1,23,51.1c1.4,3.2,6.2,2.7,7.8,0c15.5-26.8,46.9-40.7,58.6-70.2 c4.6-11.7,4.7-25-0.7-36.4c-5.1-10.9-17.6-21-30.2-17.6c-18,4.9-18.7,26.2-17,41.2C229.1,467.6,238.1,467.6,237.5,461.9 L237.5,461.9z"/> </g> </g> <g> <path class="st1" d="M164.8,729.2c-6.8-10.2,3.2-26,15.5-25.8c12.3,0.1,21.9,13.5,20.2,25.6c-1.1,7.7-5.7,14.4-10.1,20.8 c-6.9,9.8-13.7,19.7-20.6,29.5c-0.9,1.3-1.9,2.7-3.4,3.2c-1.1,0.4-2.3,0.2-3.4,0c-30.4-5.2-54.5-35.2-53-66 c0.1-2.1,0.4-4.3,1.6-5.9c1.4-1.9,3.7-2.7,6-3.3c17.5-4.4,37.5,4,46.7,19.5"/> <g> <path class="st1" d="M168.6,726.9c-3.7-6.2-0.1-14,5.8-17.4c7-4,14.9,0.4,18.7,6.6c4.8,7.8,2.7,16.2-1.7,23.7 c-5.4,9.2-12.1,17.8-18.2,26.6c-1.5,2.2-3,4.4-4.6,6.6c-0.8,1.1-2.4,4.6-3.8,5.2c-2.7,1-9.1-1.9-11.7-2.9 c-7.6-3-14.6-7.7-20.4-13.4c-11.5-11.4-19-27.5-18.4-43.8c0.1-3.1,0.4-5.1,3.7-6.1c2.1-0.6,4.3-1,6.5-1.1 c4.6-0.3,9.1,0.3,13.5,1.5c9.2,2.7,17.2,8.6,22.2,16.8c3,4.9,10.8,0.4,7.8-4.5c-5.9-9.6-14.9-16.6-25.6-20.3 c-9.2-3.2-24-4.8-32.3,1.4c-8.5,6.4-4.7,23-2.2,31.6c3,10.3,8.5,19.8,15.6,27.8c7.4,8.4,16.8,14.9,27.3,18.8 c4.6,1.8,11.2,4.2,16.1,3c5.9-1.4,9.2-9,12.4-13.5c4.2-6,8.4-12,12.6-18c4.2-6,8.6-11.9,11.2-18.7c3.8-10,2-21-5.1-29.1 c-7.6-8.8-20.4-11.5-30-4.4c-8.7,6.4-12.9,18.7-7,28.4C163.8,736.4,171.6,731.9,168.6,726.9L168.6,726.9z"/> </g> </g> <g> <path class="st2" d="M256.8,921c0.3,19.6-16.2,35.6-31,49.8c-14.8,14.2-29.9,32.2-25.7,51.4c-20.3-36.9-74.5-53.1-87.1-92.7 c-2.4-7.6-3.1-15.6-2.8-23.6c0.2-8.4,1.8-17.5,8.3-23.3c6.7-6,17-7.2,26.3-6.1c20.9,2.4,40.1,14.9,49.5,32.1 c0.9-4.5,1.7-8.9,3.2-13.2c2.7-7.6,8.2-15.2,16.7-17.4c11.9-3.1,23.7,5.4,30.9,14.6C251.6,900.9,256.7,910.7,256.8,921z"/> <g> <path class="st2" d="M252.3,921c-0.1,21.1-19,35.9-32.7,49.6c-14,14-27.9,31.8-23.9,52.9c2.7-1.2,5.5-2.3,8.2-3.5 c-15-26.7-43.4-41-65.3-61.2c-11.1-10.2-20.5-22.4-23.2-37.6c-1.6-9.2-2.2-20.9,1.8-29.6c4.4-9.3,14.8-11.4,24.2-10.9 c19.9,1.1,39,12.8,48.8,30.1c1.8,3.2,7.5,2.8,8.2-1.1c1.4-7.1,2.7-14.7,7.2-20.7c4.9-6.5,12.4-8.8,20.1-6 C240.2,888.4,251.7,906.1,252.3,921c0.2,5.8,9.2,5.8,9,0c-0.8-19.3-15.4-41.5-34.5-47c-9.1-2.6-18.7-0.2-25.4,6.5 c-7.3,7.2-9.6,17.2-11.5,26.9c2.7-0.4,5.5-0.7,8.2-1.1c-9.5-16.9-26.6-28.9-45.4-33c-19.4-4.3-41.8,0.2-46.1,22.5 c-3.6,18.8,0.6,38.9,11.9,54.2c10.1,13.6,23.7,23.8,37,34c15.2,11.6,31.1,23.5,40.6,40.5c2.6,4.7,9.1,1.4,8.2-3.5 c-4-21.4,16.1-38.7,29.7-52c13.3-13,27.1-28.3,27.1-48C261.4,915.2,252.4,915.2,252.3,921z"/> </g> </g> <g> <path class="st2" d="M278.5,660.8c-0.8-7.6-1.7-15.5,0.6-22.8s8.3-14,15.9-14.5c3.1-0.2,6.2,0.6,9,2c14.6,6.9,19.8,26.2,15.4,41.7 c-4.3,15.5-15.9,27.9-27.6,38.8c-11.8,11-24.5,21.5-32.3,35.6c-5.9-13-11.8-26-17.7-39.1c-4.3-9.5-8.6-19-10.5-29.2 c-1.2-6.5-1.5-13.1-1.7-19.7c-0.2-6.8-0.2-14.5,4.5-19.4c7.1-7.5,20.2-3.8,27.9,3.1s13.3,16.4,22.2,21.6"/> <g> <path class="st2" d="M283,660.8c-0.9-8.4-2.3-18.2,2.3-25.8c4.3-7.1,11.6-8.8,18.7-4.4c11.4,6.9,14.4,22.7,11.2,34.7 c-4,15.5-15.9,27.5-27.3,38.1c-11.9,11-24.2,21.7-32.4,35.9c2.6,0,5.2,0,7.8,0c-6.4-14.1-12.9-28.2-19.3-42.4 c-3.1-6.9-6-13.9-7.8-21.2c-1.8-7.5-2.1-15.2-2.3-22.8c-0.2-5.6-0.5-13.3,4.8-16.8c4.7-3.1,11.3-1.1,15.8,1.4 c10.9,6.2,16.6,18.6,27.3,25.2c4.9,3,9.5-4.7,4.5-7.8c-12.5-7.7-18.4-22.6-32.8-27.8c-13.7-4.9-26.5,2.2-28.3,16.8 c-2,16.2,1.1,33.7,7.3,48.7c7.1,17.2,15.3,34.1,23,51.1c1.4,3.2,6.2,2.7,7.8,0c15.5-26.8,46.9-40.7,58.6-70.2 c4.6-11.7,4.7-25-0.7-36.4c-5.1-10.9-17.6-21-30.2-17.6c-18,4.9-18.7,26.2-17,41.2C274.6,666.5,283.6,666.5,283,660.8L283,660.8z "/> </g> </g> <g> <path class="st2" d="M431.6,930.1c-3.8-11.7,10-24.2,21.8-20.8c11.8,3.4,17.6,18.8,12.6,30.1c-3.1,7.1-9.3,12.3-15.3,17.3 c-9.2,7.7-18.5,15.3-27.7,23c-1.2,1-2.5,2.1-4.1,2.1c-1.2,0.1-2.3-0.4-3.3-0.9c-27.9-13.1-43.2-48.4-33.5-77.7 c0.7-2,1.5-4,3.1-5.3c1.8-1.4,4.3-1.6,6.6-1.5c18.1,0.5,35,13.8,39.8,31.2"/> <g> <path class="st2" d="M435.9,928.9c-2.1-7.6,4.9-14.9,12.3-15.6c7.7-0.7,13.3,6.6,14.6,13.4c1.7,8.6-2.9,15.5-8.9,21.1 c-7.9,7.4-16.6,14.1-25,21c-2.1,1.7-4.1,3.4-6.2,5.1c-2.4,2-3.3,3.5-6.3,2.5c-3.7-1.3-7.4-4.2-10.4-6.7c-6-4.9-10.9-11-14.7-17.8 c-7.5-13.5-10.1-30-5.9-45c0.8-3,1.5-5.5,4.8-6.1c2.3-0.4,5,0.2,7.3,0.7c4.3,0.9,8.3,2.5,12.1,4.7c8.5,5.1,14.8,13,17.5,22.5 c1.6,5.5,10.3,3.2,8.7-2.4c-3.2-11-10.3-20.4-19.9-26.7c-8-5.3-22-10.9-31.5-6.6c-9.4,4.3-10.2,21.2-10,30.1 c0.2,10.7,3,21.4,7.9,30.9c4.8,9.6,11.8,18,20.4,24.4c3.8,2.9,8.4,6.1,13.1,7.4c7.1,1.9,13-5.4,17.9-9.4 c5.6-4.7,11.3-9.4,16.9-14c5.3-4.4,10.8-8.7,15-14.2c6.5-8.5,8.3-19.1,4-29.1c-4.4-10.3-15.3-17.4-26.6-14 c-11,3.3-19.2,14.6-16,26.1C428.8,936.9,437.5,934.5,435.9,928.9L435.9,928.9z"/> </g> </g> <g> <path class="st2" d="M625.5,573.9c-1.4-12.2,14.6-21.7,25.5-16c10.9,5.7,13.5,21.9,6.4,32c-4.5,6.4-11.6,10.2-18.4,13.9 c-10.6,5.7-21.1,11.3-31.7,17c-1.4,0.7-2.9,1.5-4.4,1.3c-1.1-0.2-2.1-0.8-3.1-1.5c-24.8-18.4-32.7-56.1-17.4-82.8 c1-1.8,2.2-3.6,4.1-4.6c2.1-1,4.5-0.7,6.8-0.2c17.6,4.1,31.6,20.5,32.8,38.5"/> <g> <path class="st2" d="M630,573.9c-0.5-7.2,5.7-12.4,12.5-13.1c7.6-0.8,12.9,5.7,14.1,12.7c1.4,8.6-3,15.7-9.8,20.5 c-8.6,6.1-18.5,10.5-27.7,15.4c-4.5,2.4-9.3,5.9-14.1,7.6c-3.6,1.2-7.8-4.3-10.1-6.8c-5.6-6-9.8-13.4-12.4-21.2 c-5-14.8-4.8-31.8,2.2-46c1.1-2.2,2.4-5.6,5.1-6c1.9-0.3,4.6,0.8,6.4,1.5c4.6,1.6,8.9,4.3,12.5,7.6c7.2,6.6,12.1,15.6,12.9,25.4 c0.5,5.7,9.5,5.8,9,0c-1-11.7-6-22.6-14.5-30.8c-6.7-6.6-19.5-14.9-29.5-12.3c-5.6,1.5-8.4,7.1-10.6,11.9 c-2.4,5.3-4.1,10.8-5,16.6c-1.7,10.6-1,21.6,2,31.9c3.1,10.7,8.7,20.7,16.4,28.7c3,3.1,6.9,7.2,11.1,8.6 c6.5,2.2,14.2-4.2,19.6-7.1c19-10.2,52.9-22.3,44.6-50.3c-3.1-10.6-12.7-18.3-24-16.7c-10.7,1.5-20.5,10.6-19.7,21.9 C621.4,579.7,630.4,579.7,630,573.9L630,573.9z"/> </g> </g> </g> </svg>